<?xml version="1.0"?>
<svg width="201.3" height="201.3" xmlns="http://www.w3.org/2000/svg" xmlns:svg="http://www.w3.org/2000/svg">

 <g class="layer">
  <title>Layer 1</title>
  <g data-name="Layer 2" id="Layer_2" transform="translate(0, 0.234742) matrix(1, 0, 0, 1, 0, 5.16432)">
   <g data-name="Layer 1" id="Layer_1-2">
    <path d="m111.11,18c2.57,-0.92 5,-1.76 7.36,-2.63c9.29,-3.38 18.85,-5.25 28.6,-2.86c15.66,3.83 27.21,12.85 33.49,28.06c2.82,6.83 1.69,13.47 -0.76,20c-0.78,2.1 -1.9,4.07 -3,6.44a28.43,28.43 0 0 0 3.2,2.99c6.07,4.1 10.53,9.68 14.57,15.62a37.39,37.39 0 0 1 6.78,21.77c0,7.78 -0.37,15.35 -3.08,22.82a44.83,44.83 0 0 1 -20.63,24.31a69,69 0 0 1 -30.93,9.32c-1.12,0.07 -2.23,0.35 -3.67,0.59a47.2,47.2 0 0 0 -2.85,5.07c-2.15,5.15 -6.15,8.24 -11.16,10c-8.84,3.15 -17.43,2.73 -25.33,-2.81c-4.42,-3.1 -8.68,-6.42 -13.06,-9.68a18,18 0 0 0 -2,1.74c-6,7.13 -13.51,9.91 -22.84,9.21c-13.22,-1 -25.43,-4.94 -36.07,-12.52c-9,-6.42 -15.5,-15.18 -17.83,-26.41c-0.7,-3.36 -1.34,-6.74 -2,-10.11c-1.44,-7.46 -1.47,-14.81 2.21,-22c-1.38,-1.32 -2.61,-2.43 -3.76,-3.62c-5.35,-5.42 -6.86,-12.41 -8.08,-19.48a33.41,33.41 0 0 1 -0.25,-6c0.14,-17.92 7,-24 20.61,-30.3c4.11,-1.9 8.61,-3 12.54,-4.32c2.3,-6.32 4.33,-12.25 6.64,-18.07a57.63,57.63 0 0 1 4.61,-9.19c8.86,-14.14 21.36,-17.76 35.41,-15.16a49,49 0 0 1 25.1,12.34c1.85,1.74 4,3.16 6.18,4.88zm-68.93,33.27c-3.29,1 -6,1.79 -8.72,2.78c-4.56,1.68 -9.15,3.33 -13.57,5.34c-5.26,2.41 -9.09,6.7 -9.76,12.31c-1.16,9.74 1,18.82 8.74,25.74c2.12,1.9 4.59,3.46 5.41,7c-2.42,4.77 -4.88,9.92 -4.58,15.86s1,12 3.17,17.69s5.06,10.94 9.75,14.93c6.84,5.84 14.5,10.17 23.41,12c2.25,0.47 4.51,0.84 6.74,1.39c8.51,2.08 15.13,-1.13 20.63,-7.37c0.93,-1.06 1.4,-2.5 2.3,-3.6c2.5,-3.07 5.68,-3.72 9,-1.41a30.61,30.61 0 0 1 5.4,5.39c4.82,5.61 10.43,9.9 18,10.64c6.06,0.6 11.49,-0.55 14.42,-6.81a32,32 0 0 1 2.07,-3.76c2.26,-3.46 5,-6.09 9.57,-6.21c3.12,-0.09 6.2,-1.14 9.32,-1.46c6.39,-0.64 12.2,-2.88 17.87,-5.75c17.87,-9 23.67,-30.76 17.86,-48c-2.63,-7.83 -8.29,-13.61 -14.32,-19c-1.91,-1.71 -3.94,-3.31 -5.79,-5.1a5,5 0 0 1 -1,-6.29a33.34,33.34 0 0 0 2.5,-5.44c2,-7 2.82,-14.16 -0.58,-20.81c-6.61,-13.18 -18.37,-18.33 -32.39,-18.63c-7.82,-0.18 -15.32,2.2 -22.25,5.83c-4.3,2.26 -7.63,1.57 -10.69,-1.91a14.9,14.9 0 0 0 -1.76,-1.88c-7.61,-6.18 -15.55,-11.48 -25.61,-13.24s-21,3.36 -25.1,10.93a80.69,80.69 0 0 0 -7.22,19.22c-0.83,3.28 -1.9,6.5 -2.82,9.62z" id="svg_1"/>
    <path class="cls-1" d="m40.9,50.93c0.94,-3.22 2.05,-6.55 2.89,-9.93a82.78,83.31 0 0 1 7.41,-19.84c4.25,-7.82 15.39,-13.12 25.75,-11.29s18.47,7.29 26.27,13.67a15.29,15.38 0 0 1 1.81,1.94c3.14,3.59 6.56,4.31 10.97,1.97c7.11,-3.75 14.8,-6.19 22.83,-6.02c14.36,0.34 26.45,5.63 33.32,19.17c3.49,6.87 2.69,14.29 0.59,21.49a34.2,34.42 0 0 1 -2.56,5.62a5.13,5.16 0 0 0 1.03,6.49c1.9,1.85 3.98,3.5 5.94,5.27c6.16,5.58 11.99,11.54 14.69,19.62c5.96,17.85 0,40.27 -18.32,49.61c-5.82,2.96 -11.78,5.28 -18.33,5.94c-3.2,0.33 -6.36,1.41 -9.56,1.51c-4.74,0.12 -7.5,2.84 -9.82,6.41a32.83,33.04 0 0 0 -2.12,3.88c-3.01,6.46 -8.58,7.65 -14.79,7.03c-7.79,-0.76 -13.54,-5.16 -18.47,-10.99a31.4,31.6 0 0 0 -5.54,-5.57c-3.46,-2.39 -6.72,-1.71 -9.23,1.46c-0.92,1.14 -1.41,2.62 -2.36,3.72c-5.64,6.44 -12.43,9.76 -21.16,7.61c-2.29,-0.57 -4.61,-0.95 -6.91,-1.44c-9.14,-1.91 -17,-6.38 -24.02,-12.39c-4.81,-4.13 -7.79,-9.54 -10,-15.42s-3.04,-12.04 -3.34,-18.28s2.22,-11.45 4.7,-16.38c-0.84,-3.63 -3.38,-5.25 -5.55,-7.23c-7.93,-7.14 -10.16,-16.52 -8.97,-26.58c0.69,-5.79 4.62,-10.22 10.01,-12.71c4.53,-2.06 9.23,-3.78 13.92,-5.51c2.74,-1 5.57,-1.78 8.95,-2.85z" id="svg_2"/>
   </g>
  </g>
 </g>
</svg>