<?xml version="1.0"?>
<svg width="213.12" height="213.12" xmlns="http://www.w3.org/2000/svg" xmlns:svg="http://www.w3.org/2000/svg">

 <g class="layer">
  <title>Layer 1</title>
  <g data-name="Layer 2" id="Layer_2" transform="translate(0, 0.31348) matrix(1, 0, 0, 1, 0, 11.2853)">
   <g data-name="Layer 1" id="Layer_1-2">
    <path d="m61.92,15.94c4.87,-5 9.49,-9.22 15.35,-11.9c6.93,-3.16 14.14,-4.72 21.73,-3.76a34.79,34.79 0 0 1 9,2.4a77.15,77.15 0 0 1 22.32,14.89c13.18,-8.54 27.05,-8.49 39.81,-0.9c12.46,7.41 21.49,18.21 20.36,34.46c2.76,1.45 5.23,2.83 7.78,4.06c5.65,2.75 9.57,7.23 12.49,12.61c3.07,5.67 3,11.66 0.55,17.45c-1.59,3.84 -2.94,7.45 -0.86,11.48a3.68,3.68 0 0 1 0.39,1.66c-0.21,8.61 -0.81,17.14 -4.83,25a29.3,29.3 0 0 1 -16.71,14.53c-0.15,1.71 -0.37,3.35 -0.43,5c-0.34,8.27 -3.43,15.58 -7.94,22.36a27,27 0 0 1 -19,12.08c-9.19,1.42 -18.3,1.12 -26.83,-3.32l-4.17,-2.13a53.1,53.1 0 0 0 -4.75,3.31c-8.56,7.39 -18.08,10.34 -29.43,7.74c-8.32,-1.91 -15.81,-5 -21.64,-11.08c-6.23,-0.37 -12.21,-0.69 -18.18,-1.07c-6.79,-0.42 -12.67,-3.36 -18.33,-6.82c-6.27,-3.83 -9.17,-10.07 -11.47,-16.61a73.71,73.71 0 0 1 -4.4,-25.79a62.39,62.39 0 0 0 -7.34,-4a17,17 0 0 1 -8.46,-7c-4.47,-7.19 -7.42,-14.9 -6.86,-23.53a16.19,16.19 0 0 1 1.45,-6.64c3.57,-6.48 6.29,-13.59 12.2,-18.54c2.28,-1.88 2.55,-4.03 2.19,-6.88c-1.72,-13.6 4.41,-23.95 14.64,-31.93a34.57,34.57 0 0 1 25,-7.44c1.95,0.19 3.95,0.2 6.37,0.31zm67.08,11.13c-1.41,-0.79 -2.66,-1.45 -3.87,-2.18c-5.87,-3.54 -11.55,-7.47 -17.63,-10.6a30.11,30.11 0 0 0 -38.34,8.86c-2.86,3.84 -5.9,5.16 -10.22,4.08a27.4,27.4 0 0 0 -13.59,0.47c-12.07,3.13 -20.58,11.42 -19,24.56a47.22,47.22 0 0 1 0.28,8.57c-0.21,3.17 -1,6.15 -4.48,7.63c-5.48,2.36 -8.07,7.35 -9.77,12.46c-3.14,9.47 0.32,22.36 9.54,27a43.83,43.83 0 0 1 6.68,3.87c2.29,1.71 4.77,3.93 3.92,7.06c-1.75,6.49 0.43,12.54 1.74,18.59a26.5,26.5 0 0 0 11.61,17.34a33.26,33.26 0 0 0 25.41,5c5,-1 8.69,0.12 12,4.21a20.43,20.43 0 0 0 8.16,6c10.88,4.14 21.34,3.83 30.39,-4.68c0.84,-0.79 1.7,-1.54 2.59,-2.27c4.73,-3.91 6.09,-4.05 11.5,-1.16c1.26,0.67 2.45,1.46 3.73,2.1c8.51,4.3 17.16,3.71 25.8,0.47a17.06,17.06 0 0 0 9.95,-10.07c2.39,-5.9 4,-11.93 3.45,-18.39c-0.33,-3.9 1.62,-6.55 5,-8.23c2,-1 4.2,-1.81 6.27,-2.8c6.8,-3.24 10.58,-8.62 10.84,-16.18c0.17,-4.84 0.47,-9.69 -0.94,-14.49c-1,-3.31 -1.15,-6.87 0.83,-10c3.55,-5.59 1.51,-10.28 -2,-14.92a33.89,33.89 0 0 0 -9.75,-8.37c-5.25,-3.25 -8.14,-7.84 -8.32,-14.1c-0.29,-9.66 -6.29,-16.21 -13.64,-20.63c-10.54,-6.33 -22,-7.55 -33.44,-1.13a40.35,40.35 0 0 1 -4.7,1.93z" id="svg_1"/>
    <path class="cls-1" d="m129.75,26.29a41.14,41.52 0 0 0 4.82,-2.06c11.61,-6.61 23.35,-5.35 34.1,1.16c7.49,4.55 13.61,11.32 13.91,21.23c0.18,6.44 3.13,11.17 8.48,14.51a34.56,34.88 0 0 1 9.93,8.55c3.55,4.77 5.63,9.6 2.04,15.35c-2.04,3.2 -1.85,6.86 -0.85,10.29c1.44,4.94 1.13,9.93 0.96,14.91c-0.27,7.78 -4.08,13.32 -11.05,16.65c-2.11,1.03 -4.31,1.82 -6.39,2.88c-3.42,1.73 -5.4,4.46 -5.1,8.47c0.56,6.65 -1.08,12.85 -3.52,18.92a17.4,17.56 0 0 1 -10.15,10.36c-8.81,3.33 -17.63,3.94 -26.31,-0.48c-1.31,-0.66 -2.52,-1.47 -3.8,-2.16c-5.52,-2.97 -6.9,-2.83 -11.73,1.19c-0.91,0.75 -1.78,1.52 -2.64,2.34c-9.18,8.76 -19.89,9.08 -30.99,4.82a20.83,21.02 0 0 1 -8.32,-6.17c-3.4,-4.21 -7.14,-5.34 -12.24,-4.33a33.91,34.23 0 0 1 -25.91,-5.15a27.02,27.27 0 0 1 -11.84,-17.84c-1.34,-6.17 -3.56,-12.45 -1.77,-19.13c0.87,-3.22 -1.66,-5.51 -4,-7.27a44.69,45.11 0 0 0 -6.81,-3.98c-9.4,-4.72 -12.93,-17.99 -9.73,-27.73c1.73,-5.26 4.37,-10.39 9.96,-12.82c3.46,-1.42 4.3,-4.51 4.52,-7.77a48.15,48.59 0 0 0 -0.29,-8.82c-1.61,-13.52 7.07,-22.05 19.37,-25.27a27.94,28.2 0 0 1 13.86,-0.48c4.4,1.11 7.5,-0.25 10.42,-4.2a30.7,30.99 0 0 1 39.09,-9.12c6.2,3.22 11.99,7.27 17.98,10.91c1.23,0.75 2.51,1.43 3.98,2.24z" id="svg_2"/>
   </g>
  </g>
 </g>
</svg>