<?xml version="1.0"?>
<svg width="259.31" height="259.31" xmlns="http://www.w3.org/2000/svg" xmlns:svg="http://www.w3.org/2000/svg">
 <g class="layer">
  <title>Layer 1</title>
  <g data-name="Layer 2" id="Layer_2">
   <g data-name="Layer 1" id="Layer_1-2">
    <path d="m45.15,128.52a55.75,55.75 0 0 0 -1.07,-5.62c-4.16,-13.68 -0.83,-26.31 6.69,-37.61a89.27,89.27 0 0 1 24.72,-24.84c8.07,-5.4 17.05,-8 26.28,-10c18.31,-3.94 35.25,-0.28 50.77,10c8.07,5.34 13.84,12.84 18.35,21.24c3.78,7.05 6.8,14.46 7.84,22.25c1.81,1.63 3.46,0.74 5.06,0.34a34.4,34.4 0 0 1 26.48,3.7a30.46,30.46 0 0 1 12.79,13.46c1.71,3.59 3.15,7.3 4.91,11.42a45.47,45.47 0 0 0 6.6,-0.06c4.84,-0.7 8.85,0.92 12.94,3.36c11.12,6.61 13.05,16.49 11.16,26.5c-2,10.67 -7.72,18.76 -17.9,23.69c-12.22,5.92 -25.18,7.69 -38.4,7.61c-12.88,-0.07 -25.75,-1 -38.62,-1.65c-14.27,-0.78 -28.53,-2.13 -42.81,-2.48a195.75,195.75 0 0 0 -29.14,1.47c-18.8,2.38 -37.59,3.91 -56.52,2.74a84.89,84.89 0 0 1 -14.35,-2.51c-8.43,-2 -13.66,-7.76 -17.36,-15.36c-2.98,-6.13 -3.73,-12.49 -3.57,-19.17a20.59,20.59 0 0 1 5.11,-13.38c9.58,-10.92 21.18,-17.3 36.29,-15.11a35.79,35.79 0 0 0 3.75,0.01zm172,13.58c-0.48,-2.65 -0.88,-5.15 -1.39,-7.62c-1.92,-9.29 -6.65,-16.17 -15.84,-19.83c-5.41,-2.15 -10.43,-2.62 -15.66,0.12a53.59,53.59 0 0 1 -7,3.2c-4.37,1.53 -7.15,0 -8.45,-4.55a11.51,11.51 0 0 1 -0.57,-3.37c0.16,-7.43 -2.78,-14.08 -5.8,-20.49c-6.29,-13.23 -16.18,-22.66 -30.23,-27.66c-12.08,-4.29 -24.09,-4.14 -36.27,-0.67a51.11,51.11 0 0 0 -14.71,6.84c-7.97,5.34 -14.23,12.38 -20.23,19.68a36,36 0 0 0 -7.71,16.15c-1.53,7.89 -1.79,15.91 3.14,23.19a40.19,40.19 0 0 1 3.91,8.58a4.47,4.47 0 0 1 -4.92,6a17,17 0 0 1 -5.63,-2c-11.73,-6.65 -25.27,-1.77 -32.79,6.48c-2.09,2.27 -4.33,5 -5,7.85c-1.91,8.17 -0.1,15.86 4.95,22.69c3.3,4.46 8.11,6.3 13.24,7.23a99.6,99.6 0 0 0 29.1,1c13.09,-1.49 26.17,-3.39 39.3,-4.17a418.3,418.3 0 0 1 69.52,1.78a279,279 0 0 0 46.34,1.2c7.33,-0.43 14,-2.74 20.49,-5.9a20.7,20.7 0 0 0 7.64,-6.76c3.09,-4.29 4.55,-9.22 5.74,-14.25a8.75,8.75 0 0 0 -2.6,-8.65c-1,-1 -2,-2.06 -3.09,-3c-3.7,-3.07 -7.55,-4.91 -12.61,-3c-3.79,1.5 -7.86,1.65 -12.89,-0.07l0.02,0z" id="svg_1"/>
    <path class="cls-1" d="m220.77,140.25c5.22,1.83 9.49,1.68 13.43,0.15c5.28,-2.06 9.3,-0.09 13.16,3.2c1.14,0.98 2.16,2.13 3.22,3.2a9.13,9.33 0 0 1 2.71,9.21c-1.24,5.33 -2.76,10.66 -5.99,15.19a21.6,22.06 0 0 1 -7.97,7.2c-6.77,3.36 -13.73,5.83 -21.38,6.29a291.13,297.3 0 0 1 -48.35,-1.28a436.48,445.73 0 0 0 -72.54,-1.89c-13.7,0.83 -27.34,2.85 -41.01,4.45a103.93,106.13 0 0 1 -30.37,-1.06c-5.36,-0.99 -10.37,-2.96 -13.82,-7.7c-5.22,-7.28 -7.16,-15.47 -5.17,-24.18c0.7,-3.05 3.03,-5.94 5.22,-8.37c7.87,-8.87 22,-14.06 34.23,-6.94a17.74,18.11 0 0 0 5.88,2.13a4.67,4.77 0 0 0 5.14,-6.39a41.93,42.83 0 0 0 -4.08,-9.14c-5.15,-7.82 -4.88,-16.36 -3.27,-24.74a37.57,38.36 0 0 1 8.04,-17.21c6.26,-7.78 12.8,-15.28 21.11,-21.01a53.33,54.46 0 0 1 15.35,-7.29c12.71,-3.7 25.24,-3.86 37.85,0.72c14.61,5.33 24.98,15.41 31.48,29.5c3.13,6.83 6.26,13.92 6.05,21.83a12.01,12.26 0 0 0 0.59,3.59c1.35,4.81 4.26,6.47 8.82,4.85a55.92,57.11 0 0 0 7.3,-3.41c5.46,-2.91 10.69,-2.42 16.34,-0.12c9.59,3.9 14.53,11.23 16.53,21.13c0.57,2.63 0.99,5.3 1.49,8.12l0.01,0z" id="svg_2"/>
   </g>
  </g>
 </g>

</svg>