<?xml version="1.0"?>
<svg width="306.67" height="306.67" xmlns="http://www.w3.org/2000/svg" xmlns:svg="http://www.w3.org/2000/svg">

 <g class="layer">
  <title>Layer 1</title>
  <g data-name="Layer 2" id="Layer_2">
   <g data-name="Layer 1" id="Layer_1-2">
    <path d="m41.28,138.58c1.26,-3.3 2.46,-6.2 3.5,-9.16c4,-11.39 13,-16.23 24,-18.13c3.34,-0.58 6.85,-0.22 10.29,-0.26c1.94,0 3.88,0 6.38,0c0.25,-4.44 0.71,-8.36 0.63,-12.28c-0.12,-5.51 2.1,-9.82 5.47,-14c15.15,-18.86 35.29,-27.91 58.85,-29.32c11.91,-0.71 23.08,3.37 33.37,9.52c9.66,5.78 16.42,14.08 21.2,24.14c0.72,1.52 1.6,3 2.64,4.88c10.77,-2.21 21.08,-2 30,5.6a44.11,44.11 0 0 1 15.49,27.37c2.33,0 4.26,0 6.18,0c5.7,0.06 11.38,-0.22 17,1.34c8.39,2.3 15.06,6.66 19.71,14.09c6.67,10.63 11,21.94 10.65,34.73c-0.31,11.72 -5,20.84 -15,27.4a67.82,67.82 0 0 1 -25.27,10.22a218.2,218.2 0 0 1 -23.67,2.75a38,38 0 0 1 -10.19,-1.18c-4.74,-1 -9,0 -13.36,1.87c-7.58,3.28 -15.13,6.66 -22.88,9.49a70.68,70.68 0 0 1 -14.88,3.7a120.42,120.42 0 0 1 -33.33,0.09c-10.09,-1.48 -18.93,-6.24 -27.31,-11.86c-1.65,-1.11 -3.32,-2.19 -5.28,-3.5c-2.93,1.68 -5.78,3.5 -8.79,5c-2.82,1.4 -5.77,2.52 -8.71,3.64a57.71,57.71 0 0 1 -18.44,3.66c-9.45,0.38 -18.84,0.75 -28.17,-1.66c-22.79,-5.86 -39.45,-19.08 -48.67,-40.85c-3.94,-9.29 -3.27,-19.06 0.18,-28.51a17.64,17.64 0 0 1 3.66,-5.71c7.75,-8.3 17.17,-13.18 28.8,-13.07l5.95,0zm74.85,64.11c5.7,6.59 13,10.5 20.82,13.3c11.57,4.11 23.62,4.44 35.66,3.24c10.28,-1 20.41,-3 29.54,-8.32c3.21,-1.87 6.57,-3.5 9.78,-5.37a10.77,10.77 0 0 1 8.24,-1.24c15.54,3.57 30.82,1.14 45.89,-2.59c6.88,-1.71 13.84,-3.7 19.79,-8c4.81,-3.49 8.72,-7.76 9.77,-13.63c1.31,-7.34 1.88,-14.8 -2.24,-21.72a39.64,39.64 0 0 1 -2.82,-6.26c-2.56,-6.75 -7.9,-10.35 -14.23,-12.75a38.16,38.16 0 0 0 -8.33,-2c-7.15,-1 -14.29,-1.24 -21.14,1.71c-2.16,0.93 -3.92,0.23 -5.35,-1.45s-1.78,-3.6 0,-5.33s1.52,-3.6 1.32,-5.6c-1,-9.85 -6,-17.08 -14.47,-22c-2.54,-1.48 -5.05,-2.48 -8.1,-2.08c-2.81,0.37 -5.8,-0.14 -8.49,0.56c-2.93,0.77 -5.62,2.49 -8.24,3.72c-3.39,-1.06 -4.78,-3.19 -5.2,-6.38c-0.35,-2.78 -0.65,-5.82 -2,-8.21c-5.85,-10.59 -14.1,-18.42 -25.84,-22.6a53,53 0 0 0 -31.18,-1.54a69.85,69.85 0 0 0 -37.41,22.79a23.63,23.63 0 0 0 -5.79,12.27c-0.53,4 -0.71,8 -1.18,12c-0.61,5.13 -3,7 -8,6.62c-3.7,-0.27 -7.46,-1 -11.12,-0.63c-13.51,1.25 -20.39,6.81 -23.27,18.92c-0.33,1.38 -0.49,2.81 -0.8,4.2a10,10 0 0 1 -4.48,6.75c-1.77,-0.38 -4,-0.81 -6.14,-1.32c-10.94,-2.54 -25.68,5.4 -29.34,15.87a17.19,17.19 0 0 0 -0.75,3.34a30.5,30.5 0 0 0 8,26.11c9.37,10.36 21.09,16.28 34.59,19.19c10,2.19 19.91,1.31 29.91,0.31c8.14,-0.81 15.72,-2.95 22.48,-7.67a23.84,23.84 0 0 1 10.12,-4.21z" id="svg_1"/>
    <path class="cls-1" d="m115.97,205.48a24.44,25.65 0 0 0 -10.39,4.53c-6.93,5.08 -14.7,7.38 -23.05,8.25c-10.25,1.08 -20.43,2.02 -30.67,-0.33c-13.84,-3.23 -25.86,-9.5 -35.54,-20.7a31.27,32.81 0 0 1 -8.2,-28.09a17.62,18.49 0 0 1 0.77,-3.59c3.75,-11.26 18.87,-19.81 30.08,-17.07c2.24,0.55 4.48,1.01 6.3,1.42a10.25,10.76 0 0 0 4.59,-7.26c0.32,-1.5 0.48,-3.03 0.82,-4.52c2.95,-13.03 10.01,-19.01 23.86,-20.36c3.75,-0.37 7.61,0.39 11.4,0.68c5.2,0.4 7.61,-1.6 8.2,-7.12c0.48,-4.3 0.67,-8.61 1.21,-12.91a24.23,25.42 0 0 1 5.94,-13.2a71.62,75.15 0 0 1 38.4,-24.58a54.34,57.02 0 0 1 31.97,1.66c12.04,4.5 20.51,12.91 26.49,24.32c1.34,2.57 1.65,5.84 2.05,8.83c0.43,3.43 1.86,5.72 5.33,6.86c2.69,-1.32 5.44,-3.17 8.45,-4c2.76,-0.75 5.82,-0.2 8.7,-0.6c3.13,-0.43 5.7,0.65 8.3,2.24c8.73,5.33 13.81,13.1 14.84,23.67c0.21,2.15 0.34,4.3 -1.35,6.03s-1.53,3.85 0,5.73s3.27,2.56 5.49,1.56c7.02,-3.23 14.35,-2.87 21.67,-1.84a39.13,41.06 0 0 1 8.53,2.15c6.49,2.58 11.98,6.46 14.59,13.7a40.64,42.65 0 0 0 2.89,6.74c4.22,7.45 3.64,15.47 2.3,23.37c-1.08,6.32 -5.13,10.91 -10.02,14.66c-6.15,4.65 -13.24,6.79 -20.29,8.61c-15.45,4.01 -31.12,6.63 -47.05,2.79a11.04,11.59 0 0 0 -8.45,1.33c-3.29,2.01 -6.74,3.77 -10.03,5.78c-9.36,5.73 -19.75,7.85 -30.29,8.95c-12.3,1.29 -24.7,0.94 -36.56,-3.49c-7.99,-2.87 -15.45,-7.08 -21.3,-14.17z" id="svg_2"/>
   </g>
  </g>
 </g>
</svg>